<svg width="21" height="21" viewBox="0 0 21 21" fill="none" xmlns="http://www.w3.org/2000/svg">
<path d="M20.335 10.5C20.335 15.9317 15.9317 20.335 10.5 20.335C5.06828 20.335 0.665 15.9317 0.665 10.5C0.665 5.06828 5.06828 0.665 10.5 0.665C15.9317 0.665 20.335 5.06828 20.335 10.5Z" stroke="url(#paint0_linear_167_452)" stroke-width="1.33"/>
<path d="M7.53148 12.8639C7.61295 13.9732 8.56108 15.3009 10.4833 15.3009C12.6639 15.3009 13.95 13.4532 13.95 10.3245C13.95 6.97228 12.5963 5.70001 10.5648 5.70001C8.95975 5.70001 7.45001 6.86481 7.45001 8.83561C7.45001 10.8463 8.87828 11.9036 10.3551 11.9036C11.6481 11.9036 12.4871 11.2519 12.7523 10.5343H12.7991C12.7921 12.8153 12 14.2852 10.5371 14.2852C9.38614 14.2852 8.78988 13.5052 8.71708 12.8639H7.53148ZM12.65 8.84775C12.65 10.0541 11.6811 10.8931 10.5977 10.8931C9.55601 10.8931 8.61481 10.2292 8.61481 8.81308C8.61481 7.38654 9.62361 6.71575 10.6393 6.71575C11.7365 6.71575 12.65 7.40561 12.65 8.84775Z" fill="url(#paint1_linear_167_452)"/>
<defs>
<linearGradient id="paint0_linear_167_452" x1="10.5" y1="0" x2="10.5" y2="21" gradientUnits="userSpaceOnUse">
<stop stop-color="#7000FF"/>
<stop offset="1" stop-color="#A563F9"/>
</linearGradient>
<linearGradient id="paint1_linear_167_452" x1="3" y1="2.5" x2="18" y2="20" gradientUnits="userSpaceOnUse">
<stop stop-color="#7000FF"/>
<stop offset="0.374893" stop-color="#A563F9"/>
<stop offset="1" stop-color="#7000FF"/>
</linearGradient>
</defs>
</svg>
