<svg width="21" height="21" viewBox="0 0 21 21" fill="none" xmlns="http://www.w3.org/2000/svg">
<path d="M8.45906 15.3405V8.33963H7.62825C7.03322 8.65681 6.45815 9.0101 5.90625 9.3975V10.3097C6.39844 9.97238 7.17806 9.49594 7.55737 9.28988H7.57313V15.3405H8.45906ZM10.0183 13.6277C10.08 14.4677 10.7979 15.4731 12.2535 15.4731C13.9046 15.4731 14.8785 14.0739 14.8785 11.7049C14.8785 9.1665 13.8534 8.20312 12.3152 8.20312C11.0998 8.20312 9.95662 9.08512 9.95662 10.5774C9.95662 12.0999 11.0381 12.9006 12.1564 12.9006C13.1355 12.9006 13.7708 12.4071 13.9716 11.8637H14.007C14.0017 13.5909 13.4019 14.7039 12.2942 14.7039C11.4227 14.7039 10.9712 14.1133 10.9161 13.6277H10.0183ZM13.8941 10.5866C13.8941 11.5001 13.1604 12.1354 12.3401 12.1354C11.5513 12.1354 10.8386 11.6327 10.8386 10.5604C10.8386 9.48019 11.6025 8.97225 12.3716 8.97225C13.2024 8.97225 13.8941 9.49463 13.8941 10.5866Z" fill="url(#paint0_linear_3_815)"/>
<path d="M4.59375 0C4.7678 0 4.93472 0.0691404 5.05779 0.192211C5.18086 0.315282 5.25 0.482202 5.25 0.65625V1.3125H15.75V0.65625C15.75 0.482202 15.8191 0.315282 15.9422 0.192211C16.0653 0.0691404 16.2322 0 16.4062 0C16.5803 0 16.7472 0.0691404 16.8703 0.192211C16.9934 0.315282 17.0625 0.482202 17.0625 0.65625V1.3125H18.375C19.0712 1.3125 19.7389 1.58906 20.2312 2.08134C20.7234 2.57363 21 3.24131 21 3.9375V18.375C21 19.0712 20.7234 19.7389 20.2312 20.2312C19.7389 20.7234 19.0712 21 18.375 21H2.625C1.92881 21 1.26113 20.7234 0.768845 20.2312C0.276562 19.7389 0 19.0712 0 18.375V3.9375C0 3.24131 0.276562 2.57363 0.768845 2.08134C1.26113 1.58906 1.92881 1.3125 2.625 1.3125H3.9375V0.65625C3.9375 0.482202 4.00664 0.315282 4.12971 0.192211C4.25278 0.0691404 4.4197 0 4.59375 0V0ZM1.3125 5.25V18.375C1.3125 18.7231 1.45078 19.0569 1.69692 19.3031C1.94306 19.5492 2.2769 19.6875 2.625 19.6875H18.375C18.7231 19.6875 19.0569 19.5492 19.3031 19.3031C19.5492 19.0569 19.6875 18.7231 19.6875 18.375V5.25H1.3125Z" fill="url(#paint1_linear_3_815)"/>
<defs>
<linearGradient id="paint0_linear_3_815" x1="4.6245" y1="4.74125" x2="12.8791" y2="20.6952" gradientUnits="userSpaceOnUse">
<stop stop-color="#7000FF"/>
<stop offset="0.53125" stop-color="#AB6CFC"/>
<stop offset="1" stop-color="#7000FF"/>
</linearGradient>
<linearGradient id="paint1_linear_3_815" x1="-3" y1="-10" x2="23.5" y2="31.5" gradientUnits="userSpaceOnUse">
<stop stop-color="#7000FF"/>
<stop offset="0.53125" stop-color="#AB6CFC"/>
<stop offset="1" stop-color="#7000FF"/>
</linearGradient>
</defs>
</svg>
