<svg width="225" height="32" viewBox="0 0 225 32" fill="none" xmlns="http://www.w3.org/2000/svg">
<circle cx="217.317" cy="7" r="5" fill="#488BFE"/>
<path d="M214.814 15.7875C215.565 13.5842 218.435 13.0462 219.933 14.8278V14.8278C220.15 15.0857 220.322 15.3784 220.441 15.6936L222.741 21.7657C224.336 25.9789 220.305 30.1468 216.041 28.6929V28.6929C213.257 27.7436 211.77 24.7172 212.719 21.9331L214.814 15.7875Z" fill="#A374D5"/>
<path d="M2.04 25V4H9.81C11.49 4 12.88 4.28 13.98 4.84C15.08 5.4 15.9 6.17 16.44 7.15C16.98 8.13 17.25 9.23 17.25 10.45C17.25 11.61 16.99 12.68 16.47 13.66C15.95 14.62 15.14 15.4 14.04 16C12.94 16.58 11.53 16.87 9.81 16.87H5.88V25H2.04ZM5.88 13.75H9.57C10.91 13.75 11.87 13.46 12.45 12.88C13.05 12.28 13.35 11.47 13.35 10.45C13.35 9.41 13.05 8.6 12.45 8.02C11.87 7.42 10.91 7.12 9.57 7.12H5.88V13.75ZM20.1727 25V3.4H24.0127V12.4C24.5127 11.58 25.1827 10.94 26.0227 10.48C26.8827 10 27.8627 9.76 28.9627 9.76C30.8027 9.76 32.2227 10.34 33.2227 11.5C34.2427 12.66 34.7527 14.36 34.7527 16.6V25H30.9427V16.96C30.9427 15.68 30.6827 14.7 30.1627 14.02C29.6627 13.34 28.8627 13 27.7627 13C26.6827 13 25.7827 13.38 25.0627 14.14C24.3627 14.9 24.0127 15.96 24.0127 17.32V25H20.1727ZM43.5546 25.36C42.2746 25.36 41.2246 25.16 40.4046 24.76C39.5846 24.34 38.9746 23.79 38.5746 23.11C38.1746 22.43 37.9746 21.68 37.9746 20.86C37.9746 19.48 38.5146 18.36 39.5946 17.5C40.6746 16.64 42.2946 16.21 44.4546 16.21H48.2346V15.85C48.2346 14.83 47.9446 14.08 47.3646 13.6C46.7846 13.12 46.0646 12.88 45.2046 12.88C44.4246 12.88 43.7446 13.07 43.1646 13.45C42.5846 13.81 42.2246 14.35 42.0846 15.07H38.3346C38.4346 13.99 38.7946 13.05 39.4146 12.25C40.0546 11.45 40.8746 10.84 41.8746 10.42C42.8746 9.98 43.9946 9.76 45.2346 9.76C47.3546 9.76 49.0246 10.29 50.2446 11.35C51.4646 12.41 52.0746 13.91 52.0746 15.85V25H48.8046L48.4446 22.6C48.0046 23.4 47.3846 24.06 46.5846 24.58C45.8046 25.1 44.7946 25.36 43.5546 25.36ZM44.4246 22.36C45.5246 22.36 46.3746 22 46.9746 21.28C47.5946 20.56 47.9846 19.67 48.1446 18.61H44.8746C43.8546 18.61 43.1246 18.8 42.6846 19.18C42.2446 19.54 42.0246 19.99 42.0246 20.53C42.0246 21.11 42.2446 21.56 42.6846 21.88C43.1246 22.2 43.7046 22.36 44.4246 22.36ZM55.7391 25V10.12H59.1591L59.5191 12.91C60.0591 11.95 60.7891 11.19 61.7091 10.63C62.6491 10.05 63.7491 9.76 65.0091 9.76V13.81H63.9291C63.0891 13.81 62.3391 13.94 61.6791 14.2C61.0191 14.46 60.4991 14.91 60.1191 15.55C59.7591 16.19 59.5791 17.08 59.5791 18.22V25H55.7391ZM67.6336 25V10.12H71.0236L71.3536 12.13C71.8336 11.41 72.4636 10.84 73.2436 10.42C74.0436 9.98 74.9636 9.76 76.0036 9.76C78.3036 9.76 79.9336 10.65 80.8936 12.43C81.4336 11.61 82.1536 10.96 83.0536 10.48C83.9736 10 84.9736 9.76 86.0536 9.76C87.9936 9.76 89.4836 10.34 90.5236 11.5C91.5636 12.66 92.0836 14.36 92.0836 16.6V25H88.2436V16.96C88.2436 15.68 87.9936 14.7 87.4936 14.02C87.0136 13.34 86.2636 13 85.2436 13C84.2036 13 83.3636 13.38 82.7236 14.14C82.1036 14.9 81.7936 15.96 81.7936 17.32V25H77.9536V16.96C77.9536 15.68 77.7036 14.7 77.2036 14.02C76.7036 13.34 75.9336 13 74.8936 13C73.8736 13 73.0436 13.38 72.4036 14.14C71.7836 14.9 71.4736 15.96 71.4736 17.32V25H67.6336ZM97.0913 31.6L100.541 24.01H99.6413L93.8513 10.12H98.0213L102.191 20.59L106.541 10.12H110.621L101.171 31.6H97.0913ZM118.112 25V7.09H111.992V4H128.102V7.09H121.952V25H118.112ZM132.067 25L127.717 10.12H131.527L134.107 20.83L137.107 10.12H141.367L144.367 20.83L146.977 10.12H150.787L146.407 25H142.417L139.237 13.87L136.057 25H132.067ZM159.912 25.36C158.412 25.36 157.082 25.04 155.922 24.4C154.762 23.76 153.852 22.86 153.192 21.7C152.532 20.54 152.202 19.2 152.202 17.68C152.202 16.14 152.522 14.77 153.162 13.57C153.822 12.37 154.722 11.44 155.862 10.78C157.022 10.1 158.382 9.76 159.942 9.76C161.402 9.76 162.692 10.08 163.812 10.72C164.932 11.36 165.802 12.24 166.422 13.36C167.062 14.46 167.382 15.69 167.382 17.05C167.382 17.27 167.372 17.5 167.352 17.74C167.352 17.98 167.342 18.23 167.322 18.49H156.012C156.092 19.65 156.492 20.56 157.212 21.22C157.952 21.88 158.842 22.21 159.882 22.21C160.662 22.21 161.312 22.04 161.832 21.7C162.372 21.34 162.772 20.88 163.032 20.32H166.932C166.652 21.26 166.182 22.12 165.522 22.9C164.882 23.66 164.082 24.26 163.122 24.7C162.182 25.14 161.112 25.36 159.912 25.36ZM159.942 12.88C159.002 12.88 158.172 13.15 157.452 13.69C156.732 14.21 156.272 15.01 156.072 16.09H163.482C163.422 15.11 163.062 14.33 162.402 13.75C161.742 13.17 160.922 12.88 159.942 12.88ZM177.842 25.36C176.342 25.36 175.012 25.04 173.852 24.4C172.692 23.76 171.782 22.86 171.122 21.7C170.462 20.54 170.132 19.2 170.132 17.68C170.132 16.14 170.452 14.77 171.092 13.57C171.752 12.37 172.652 11.44 173.792 10.78C174.952 10.1 176.312 9.76 177.872 9.76C179.332 9.76 180.622 10.08 181.742 10.72C182.862 11.36 183.732 12.24 184.352 13.36C184.992 14.46 185.312 15.69 185.312 17.05C185.312 17.27 185.302 17.5 185.282 17.74C185.282 17.98 185.272 18.23 185.252 18.49H173.942C174.022 19.65 174.422 20.56 175.142 21.22C175.882 21.88 176.772 22.21 177.812 22.21C178.592 22.21 179.242 22.04 179.762 21.7C180.302 21.34 180.702 20.88 180.962 20.32H184.862C184.582 21.26 184.112 22.12 183.452 22.9C182.812 23.66 182.012 24.26 181.052 24.7C180.112 25.14 179.042 25.36 177.842 25.36ZM177.872 12.88C176.932 12.88 176.102 13.15 175.382 13.69C174.662 14.21 174.202 15.01 174.002 16.09H181.412C181.352 15.11 180.992 14.33 180.332 13.75C179.672 13.17 178.852 12.88 177.872 12.88ZM194.908 25C193.348 25 192.098 24.62 191.158 23.86C190.218 23.1 189.748 21.75 189.748 19.81V13.33H187.198V10.12H189.748L190.198 6.13H193.588V10.12H197.608V13.33H193.588V19.84C193.588 20.56 193.738 21.06 194.038 21.34C194.358 21.6 194.898 21.73 195.658 21.73H197.518V25H194.908Z" fill="#2B13C1"/>
</svg>
